# xmcd
#
# Track frame offsets: 
#        150
#        13247
#        22097
#        33326
#        45704
#        58704
#        70138
#        79617
#        90353
#        101685
#        112843
#        128182
#        144247
#        152345
#        161689
#        171366
#        190027
#        203710
#        215038
#        223393
#
# Disc length: 3117 seconds
#
# Revision: 2
# Processed by: cddbd v1.5.2PL0 Copyright (c) Steve Scherf et al.
# Submitted via: ExactAudioCopy v1.3
#
DISCID=150c2b14
DTITLE=Jimmie Driftwood - Six Classic Albums Plus Bonus Singles
DYEAR=2014
DGENRE=Folk
TTITLE0=Big John Davy
TTITLE1=Fidi Diddle Um a Dazey
TTITLE2=On Top of Pikes Peak
TTITLE3=Big Hoss
TTITLE4=Tucumcari
TTITLE5=The Song of Creation
TTITLE6=Big River Man
TTITLE7=Banjer Pickin' Man
TTITLE8=The Shanty in the Holler
TTITLE9=The Battle of San Juan Hill
TTITLE10=St Brendon's Isle
TTITLE11=He Had a Long Chain On
TTITLE12=Won't You Come Along and Go
TTITLE13=Billy Yank and Johnny Reb
TTITLE14=How Do You Like the Army
TTITLE15=On Top of Shiloh's Hill
TTITLE16=I'm a Pore Rebel Soldier
TTITLE17=The Giant of the Thunderhead
TTITLE18=Rock of Chickamauga
TTITLE19=My Black Bird Has Gone
EXTD=
EXTT0=
EXTT1=
EXTT2=
EXTT3=
EXTT4=
EXTT5=
EXTT6=
EXTT7=
EXTT8=
EXTT9=
EXTT10=
EXTT11=
EXTT12=
EXTT13=
EXTT14=
EXTT15=
EXTT16=
EXTT17=
EXTT18=
EXTT19=
PLAYORDER=
